<svg width="277" height="137" viewBox="0 0 277 137" fill="none" xmlns="http://www.w3.org/2000/svg">
<line x1="227.446" y1="24.9824" x2="249.927" y2="1.95222" stroke="#BF8149" stroke-width="3"/>
<line x1="233.385" y1="36.5251" x2="257.641" y2="30.5436" stroke="#BF8149" stroke-width="3"/>
<line y1="-1.5" x2="40.754" y2="-1.5" transform="matrix(0.996998 0.0774257 -0.0771876 0.997017 235.368 53.9504)" stroke="#BF8149" stroke-width="3"/>
<line x1="40.9204" y1="83.1676" x2="21.0339" y2="102.087" stroke="#BF8149" stroke-width="3"/>
<line x1="35.1134" y1="72.3748" x2="12.265" y2="76.4764" stroke="#BF8149" stroke-width="3"/>
<line y1="-1.5" x2="38.8962" y2="-1.5" transform="matrix(0.757805 0.652481 -0.651319 0.758804 202.615 91.7428)" stroke="#BF8149" stroke-width="3"/>
<line y1="-1.5" x2="23.5622" y2="-1.5" transform="matrix(0.402996 0.915202 -0.91474 0.404042 191.118 97.8782)" stroke="#BF8149" stroke-width="3"/>
<line x1="176.845" y1="100.697" x2="177.5" y2="133.971" stroke="#BF8149" stroke-width="3"/>
<path d="M33.881 27.2744L55.7409 95.005L65.9659 92.2984L44.106 24.5679L33.881 27.2744Z" fill="#BF8149"/>
<path d="M66.7629 54.9089C71.5721 69.8096 84.0872 88.5519 101.336 83.9861C117.696 79.6555 118.302 58.8055 113.212 43.034C108.465 28.3267 95.7454 9.84857 78.8519 14.3203C62.314 18.6979 61.9971 38.9465 66.7629 54.9089ZM77.1657 52.1553C74.6362 44.3179 72.3287 27.5997 82.287 24.9637C92.0674 22.3748 100.092 37.3697 102.809 45.7876C105.276 53.4315 107.948 70.6832 97.9012 73.3427C87.5873 76.0728 80.0652 60.8399 77.1657 52.1553Z" fill="#BF8149"/>
<path d="M142.686 46.5495L147.195 29.8915L142.154 31.2528L139.33 42.5427L130.322 34.4477L125.281 35.809L138.752 47.5291L142.708 60.0023L146.652 58.9374L142.686 46.5495Z" fill="#BF8149"/>
<path d="M162.266 50.1797L159.915 42.7642L168.729 40.3843L167.402 36.2012L158.588 38.5812L156.478 31.9263L166.149 29.3148L164.822 25.1317L151.207 28.8081L159.649 55.4278L173.984 51.5568L172.658 47.3738L162.266 50.1797Z" fill="#BF8149"/>
<path d="M182.993 43.7987L192.527 41.2243L196.277 45.5372L200.29 44.4537L180.692 20.2271L178.341 50.3805L182.353 49.297L182.993 43.7987ZM189.29 37.4745C189.29 37.4745 183.562 39.021 183.528 39.0302L183.937 30.4566L189.29 37.4745Z" fill="#BF8149"/>
<path d="M206.355 30.1828L217.247 39.8747L222.049 38.5782L210.614 28.7025C214.385 26.8584 215.264 23.5248 214.119 19.9121C212.551 14.9685 208.463 13.3476 203.764 14.6163L196.219 16.6537L204.661 43.2733C204.695 43.264 208.605 42.2083 208.605 42.2083L204.915 30.5717L206.355 30.1828ZM201.49 19.7718L205.091 18.7994C207.046 18.2716 209.276 18.495 210.132 21.195C210.976 23.857 209.263 25.1454 207.274 25.6825L203.673 26.6549L201.49 19.7718Z" fill="#BF8149"/>
<path d="M58.9223 119.353L66.139 117.343L68.98 120.704L72.0172 119.858L57.172 100.982L55.4033 124.484L58.4405 123.638L58.9223 119.353ZM63.687 114.422C63.687 114.422 59.3519 115.629 59.3259 115.636L59.6319 108.954L63.687 114.422Z" fill="#BF8149"/>
<path d="M78.3115 118.106L74.3703 105.333L89.9226 115.355L83.3844 94.1668L80.3991 94.998L84.3403 107.77L68.788 97.7482L75.3262 118.937L78.3115 118.106Z" fill="#BF8149"/>
<path d="M97.0203 112.896L93.0791 100.124L108.631 110.146L102.093 88.9577L99.1079 89.7889L103.049 102.561L87.4968 92.5391L94.035 113.728L97.0203 112.896Z" fill="#BF8149"/>
<path d="M115.729 107.687L109.328 86.9432L106.343 87.7744L112.744 108.518L115.729 107.687Z" fill="#BF8149"/>
<path d="M115.54 85.2136L112.373 86.0954L127.218 104.971L128.987 81.4696L125.82 82.3514L124.758 96.9994L115.54 85.2136Z" fill="#BF8149"/>
<path d="M140.404 97.2772L138.62 91.4985L145.292 89.6409L144.286 86.3812L137.615 88.2387L136.014 83.0527L143.335 81.0145L142.329 77.7547L132.023 80.6242L138.424 101.368L149.275 98.3469L148.269 95.0871L140.404 97.2772Z" fill="#BF8149"/>
<path d="M154.811 86.9585L163.06 94.5087L166.695 93.4968L158.034 85.8034C160.889 84.3651 161.553 81.7667 160.684 78.9514C159.495 75.099 156.4 73.837 152.843 74.8272L147.132 76.4173L153.533 97.1613C153.559 97.1541 156.519 96.3301 156.519 96.3301L153.72 87.262L154.811 86.9585ZM151.123 78.8459L153.849 78.087C155.329 77.675 157.017 77.8484 157.667 79.9525C158.307 82.0269 157.01 83.0316 155.504 83.4508L152.779 84.2097L151.123 78.8459Z" fill="#BF8149"/>
<path d="M174.614 71.5651C173.195 70.2547 171.028 69.4423 168.587 70.1217C165.472 70.989 163.787 73.8397 164.857 77.3069C165.808 80.3889 168.334 81.3588 171.636 81.9197C173.841 82.3035 175.637 82.7365 176.177 84.4849C176.78 86.4408 175.775 87.7504 174.269 88.1697C172.245 88.7334 170.488 87.517 169.481 85.8987L167.475 88.2593C168.67 90.2115 171.511 92.4775 175.275 91.4294C178.754 90.4609 180.401 87.3956 179.213 83.5431C178.198 80.2537 175.653 79.2244 172.681 78.6361C170.249 78.1547 168.519 78.1215 167.943 76.2545C167.531 74.921 168.295 73.7428 169.593 73.3814C170.917 73.0128 172 73.3229 173.179 74.3138L174.614 71.5651Z" fill="#BF8149"/>
<path d="M187.045 83.6793L194.262 81.6699L197.103 85.0302L200.14 84.1845L185.295 65.3089L183.526 88.8103L186.563 87.9647L187.045 83.6793ZM191.81 78.7484C191.81 78.7484 187.475 79.9555 187.449 79.9627L187.755 73.2805L191.81 78.7484Z" fill="#BF8149"/>
<path d="M204.726 73.0603L212.976 80.6105L216.61 79.5986L207.95 71.9053C210.804 70.4669 211.468 67.8685 210.6 65.0533C209.411 61.2008 206.315 59.9388 202.759 60.929L197.048 62.5192L203.449 83.2632C203.475 83.2559 206.434 82.432 206.434 82.432L203.636 73.3639L204.726 73.0603ZM201.039 64.9477L203.765 64.1888C205.244 63.7768 206.933 63.9503 207.582 66.0543C208.222 68.1287 206.925 69.1334 205.42 69.5526L202.694 70.3115L201.039 64.9477Z" fill="#BF8149"/>
<path d="M222.622 67.434L226.029 54.4499L222.213 55.5124L220.08 64.3123L213.257 58.006L209.441 59.0685L219.644 68.1987L222.643 77.9188L225.629 77.0876L222.622 67.434Z" fill="#BF8149"/>
</svg>
