<?xml version="1.0" encoding="utf-8"?>
<!-- Generator: Adobe Illustrator 19.0.0, SVG Export Plug-In . SVG Version: 6.00 Build 0)  -->
<svg version="1.1" id="Layer_1" xmlns="http://www.w3.org/2000/svg" xmlns:xlink="http://www.w3.org/1999/xlink" x="0px" y="0px"
	 viewBox="0 0 259.1 244.3" style="enable-background:new 0 0 259.1 244.3;" xml:space="preserve">
<style type="text/css">
	.st0{display:none;fill:#B3B3B3;}
	.st1{fill:#FFFFFF;}
</style>
<rect id="XMLID_12_" x="-30.4" y="-37.8" class="st0" width="320" height="320"/>
<path id="XMLID_2_" class="st1" d="M76.4,199.8C76.4,199.8,76.4,199.8,76.4,199.8c-0.4-0.3-0.7-0.6-1.1-0.8
	c-1.3-0.9-2.4-1.6-3.5-2.2l-3-1.9c0.4-0.7,0.3-1.6-0.3-2.1c-0.7-0.5-1.7-0.4-2.2,0.3c0,0-0.1,0.1-0.1,0.1l-0.6-0.4l1.9-3l5.4-3.8
	l2.1-6.3l49.5-48.1c0,0-4.2-21.6-12.3-44.1c-6.8-18.9-15.5-36-18.1-41.1l0-0.1l12.3-4.5L82.3,0L18.7,19.1L29,34.5l5.9,28.4l5.3-1.7
	l3.4,12.1l12.5,15.5l5,19.1l-21.5,49.6l-4,2.8L29.3,174l-2.3,2.3l5.4,4.8l-6,3.1l-6.8,2.3l-1.5-3.4l-8.1,3.9l-6.1,4.4
	c-0.2-0.3-0.3-0.4-0.3-0.4L0,194.3l7.5,11.4l2.4-1.7c0.2,0.2,3.3,4,3.9,6.3c0.6,2.4-0.6,6.6,0.9,8.7c2.2,2.9,12.9,13.1,18.6,18.4
	c1.2,1.2,5.9,6.1,6.5,6.7c3.3,3.1-3.4-20.1-3.4-20.1l0,0c0-0.5,0-0.9,0-1.4c-0.1-1.6-0.2-2.9-0.4-4.1l-0.4-3.5
	c0.8-0.1,1.4-0.7,1.4-1.5c0-0.9-0.7-1.6-1.6-1.6c-0.1,0-0.1,0-0.2,0l-0.2-1.6l9.1,0.8l0.1-3c0.3,0,5.2-0.1,7.4,0.9
	c2.3,1,4.8,4.6,7.4,4.7c4.4,0.2,29.8-3.7,34.3-4.4C97.8,208.6,76.4,199.8,76.4,199.8z"/>
<path id="XMLID_11_" class="st1" d="M250.2,145.2c-0.9-2.4-1.2-4.9-4.8-8.4c-1.8-1.7-4.8-2.5-7.4-2.8c0.7-4.5,1.9-10.8,3.6-15.6
	c3.1-8.4,7.9-37.9,7.5-50.6c-0.4-11.4-1.1-31.2-0.3-43.7l-54.1-13.4c0,0,0.9,16.2-12.3,29.4c-13.2,13.2-23.7,25.8-31.6,46.1
	c-7.9,20.2-10.1,28.6-10.1,28.6s13.6,2.2,22.8,7c8.2,4.3,20.2,9.7,28.2,10.5v0c0,0,5,15.9,8.8,26.7c3.8,10.8,13.8,27.8,17.3,35
	c3.5,7.2,4.4,10.2,3.4,14.3c-1.2,4.7-2.9,7.7-3.9,9.2l-0.2,0.2c-0.4,0.6-0.7,0.9-0.7,0.9l0.1-0.1l-4,5.6c0,0-5.5,2.2-9,3.8
	c-2,1-1.3,4.3,0,4.3c1.3,0,10.9,0.4,18.3-0.9c4-0.7,4.8-4.4,6.9-8.9c2.2-4.5,4.7-7,7.7-6.7c3,0.3,2.5,15.2,2.5,15.2l2,0
	c0,0,0-11.4,1.5-14.9c1-2.4,2.4-4.4,2.2-9.4c-0.2-5-7.1-10.7-7.1-10.7s-2.4-5.9-5.1-12.5c1-0.9,8.3-7.1,12.9-13
	c2.4-3.2,0.5-6.4-0.9-11.3c-1.5-4.8-1.3-8.3,1.1-10.1c2.4-1.8,12.2,9.5,12.2,9.5l1.5-1.4C259.1,157.2,251.4,148.9,250.2,145.2z
	 M230.4,178.3c-0.5-1.3-1.1-2.6-1.5-3.9c-3.2-8.1-0.5-13.9-2.1-23.6c1,0.9,1.7,1.9,2.4,3.1c3.5,6.4,3.3,10,3.3,10l1.1,7.5
	C233.5,171.5,231.8,175,230.4,178.3z"/>
</svg>
